<svg width="16" height="14" viewBox="0 0 16 14" fill="none" xmlns="http://www.w3.org/2000/svg">
<path d="M4.74772 4.5H3.75362C2.69695 4.5 2.16905 4.5 1.79322 4.69886C1.46341 4.87336 1.20989 5.14901 1.07751 5.47778C0.926743 5.8522 1.01352 6.3325 1.18702 7.29275L1.18739 7.29456L1.94625 11.4946C2.07498 12.207 2.13977 12.5634 2.33249 12.8307C2.50237 13.0664 2.74084 13.2527 3.02075 13.3685C3.3383 13.4999 3.72966 13.5 4.5127 13.5H11.4875C12.2705 13.5 12.6616 13.4999 12.9792 13.3685C13.2591 13.2527 13.4977 13.0664 13.6676 12.8307C13.8603 12.5634 13.9248 12.207 14.0535 11.4946L14.8124 7.29456L14.8131 7.29163C14.9865 6.33212 15.0732 5.85206 14.9225 5.47778C14.7901 5.14901 14.5372 4.87336 14.2074 4.69886C13.8316 4.5 13.3028 4.5 12.2461 4.5H11.2522M4.74772 4.5H11.2522M4.74772 4.5C4.74772 2.84315 5.5 1 8 1C10.5 1 11.2522 2.84315 11.2522 4.5" stroke="black" stroke-linecap="round" stroke-linejoin="round"/>
</svg>
